<?xml version="1.0" standalone="no"?>
<!DOCTYPE svg PUBLIC "-//W3C//DTD SVG 20010904//EN"
 "http://www.w3.org/TR/2001/REC-SVG-20010904/DTD/svg10.dtd">
<svg version="1.0" xmlns="http://www.w3.org/2000/svg"
 width="512.000000pt" height="512.000000pt" viewBox="0 0 512.000000 512.000000"
 preserveAspectRatio="xMidYMid meet">
<metadata>
Created by potrace 1.14, written by Peter Selinger 2001-2017
</metadata>
<g transform="translate(0.000000,512.000000) scale(0.100000,-0.100000)"
fill="#000000" stroke="none">
<path d="M1295 5104 c-81 -44 -97 -79 -100 -219 -2 -60 1 -127 6 -147 18 -72
88 -128 159 -128 26 0 33 -6 46 -35 27 -65 46 -185 41 -254 -8 -108 -47 -238
-67 -226 -17 11 -98 -17 -127 -44 -47 -43 -55 -67 -58 -175 -2 -56 -4 -106 -4
-111 -1 -7 -153 -11 -454 -11 -445 0 -453 0 -498 -22 -82 -40 -128 -99 -147
-187 -4 -22 -7 -130 -7 -240 2 -158 5 -213 19 -259 30 -103 105 -201 194 -253
39 -23 42 -28 42 -66 0 -55 0 -1961 0 -2009 l0 -37 -53 1 c-107 2 -187 -34
-236 -105 -47 -69 -53 -105 -49 -292 3 -190 9 -210 76 -255 l36 -25 2420 -3
c1332 -1 2436 0 2454 3 37 7 96 55 117 95 21 40 20 353 -1 414 -34 101 -136
167 -256 168 l-68 1 0 76 c-1 125 -1 1891 0 1956 0 60 0 60 40 79 80 39 165
147 196 252 14 49 18 99 18 285 0 214 -2 228 -23 272 -28 58 -101 123 -155
139 -29 8 -211 11 -628 12 -324 0 -588 2 -588 3 0 2 24 27 54 56 135 132 223
328 230 513 11 307 -168 597 -447 724 -150 68 -80 64 -1167 67 -889 2 -988 1
-1015 -13z"/>
</g>
</svg>
